<?xml version="1.0" standalone="no"?><!-- Generator: Gravit.io --><svg xmlns="http://www.w3.org/2000/svg" xmlns:xlink="http://www.w3.org/1999/xlink" style="isolation:isolate" viewBox="0 0 664 400" width="664" height="400"><defs><clipPath id="_clipPath_ooLsvCsDVHNQ1N6iIUcTjlfLnTqDCORp"><rect width="664" height="400"/></clipPath></defs><g clip-path="url(#_clipPath_ooLsvCsDVHNQ1N6iIUcTjlfLnTqDCORp)"><rect x="2" y="2" width="661" height="397" transform="matrix(1,0,0,1,0,0)" fill="none" vector-effect="non-scaling-stroke" stroke-width="2" stroke="rgb(2,111,193)" stroke-opacity="100" stroke-linejoin="miter" stroke-linecap="butt" stroke-miterlimit="4"/><g id="Group"><path d=" M 93.325 206 C 93.325 299.888 169.436 376 263.325 376 C 357.213 376 433.325 299.888 433.325 206 C 433.325 112.112 357.213 36 263.325 36 C 169.436 36 93.325 112.112 93.325 206" fill="rgb(31,119,180)" fill-opacity="0.25"/><g transform="matrix(1,0,0,1,115,154)"><text transform="matrix(1,0,0,1,0,17.102)" style="font-family:&quot;Open Sans&quot;;font-weight:400;font-size:16px;font-style:normal;fill:#1F77B4;stroke:none;">Open Source</text></g></g><g id="Group"><path d=" M 230.675 206 C 230.675 299.888 306.787 376 400.675 376 C 494.564 376 570.675 299.888 570.675 206 C 570.675 112.112 494.564 36 400.675 36 C 306.787 36 230.675 112.112 230.675 206" fill="rgb(255,127,14)" fill-opacity="0.25"/><g transform="matrix(1,0,0,1,446,155)"><text transform="matrix(1,0,0,1,0,17.102)" style="font-family:&quot;Open Sans&quot;;font-weight:400;font-size:16px;font-style:normal;fill:#FF7F0E;stroke:none;">Free Software</text></g></g><g id="Group"><path d=" M 332 361.511 C 270.41 334.312 230.675 273.328 230.675 206 C 230.675 138.672 270.41 77.688 332 50.489 C 393.59 77.688 433.325 138.672 433.325 206 C 433.325 273.328 393.59 334.312 332 361.511" fill="none"/><g transform="matrix(1,0,0,1,262,180)"><text transform="matrix(1,0,0,1,0,17.102)" style="font-family:&quot;Open Sans&quot;;font-weight:400;font-size:16px;font-style:normal;fill:#444444;stroke:none;">Open Source ^ Free</text></g><g transform="matrix(1,0,0,1,302,202)"><text transform="matrix(1,0,0,1,0,17.102)" style="font-family:&quot;Open Sans&quot;;font-weight:400;font-size:16px;font-style:normal;fill:#444444;stroke:none;">Software</text></g></g></g></svg>