<?xml version="1.0" standalone="no"?><!DOCTYPE svg PUBLIC "-//W3C//DTD SVG 1.1//EN" "http://www.w3.org/Graphics/SVG/1.1/DTD/svg11.dtd"><svg width="664" height="400"><defs></defs><rect x="2" y="2" width="661" height="397" fill="none" style="stroke: rgb(2, 111, 193); fill-opacity: 1; stroke-opacity: 1; stroke-width: 2;"></rect><text style="font-size:10px;font-family:'Arial', sans-serif" fill="#000000" class="vennchart-title" x="332" y="5"></text><text style="font-size:10px;font-family:'Arial', sans-serif" fill="#000000" class="vennchart-subtitle" x="332" y="10"></text><g class="venn-area venn-circle venn-sets-0"><path d="M 263.3246319448808 206 m -170 0 a 170 170 0 1 0 340 0 a 170 170 0 1 0 -340 0" style="fill-opacity: 0.25; fill: rgb(31, 119, 180); stroke-opacity: 0; stroke: red; stroke-width: 0;"></path><text text-anchor="middle" dy=".35em" x="193" y="206" style="fill: rgb(31, 119, 180);"><tspan x="193" y="206" dy="0.35em">Open Source</tspan></text></g><g class="venn-area venn-circle venn-sets-1"><path d="M 400.6753680551192 206 m -170 0 a 170 170 0 1 0 340 0 a 170 170 0 1 0 -340 0" style="fill-opacity: 0.25; fill: rgb(255, 127, 14); stroke-opacity: 0; stroke: red; stroke-width: 0;"></path><text text-anchor="middle" dy=".35em" x="470" y="206" style="fill: rgb(255, 127, 14);"><tspan x="470" y="206" dy="0.35em">Free Software</tspan></text></g><g class="venn-area venn-intersection venn-sets-0_1"><path d="M 332 361.51107298997687 A 170 170 0 0 1 332 50.48892701002313 A 170 170 0 0 1 332 361.51107298997687" style="fill-opacity: 0; stroke-opacity: 0; stroke: red; stroke-width: 0;"></path><text text-anchor="middle" dy=".35em" x="332" y="206" style="fill: rgb(68, 68, 68);"><tspan x="332" y="206" dy="-0.20000000000000007em">Open Source ^ Free</tspan><tspan x="332" y="206" dy="0.9em">Software</tspan></text></g></svg>
